<?xml version="1.0" encoding="UTF-8"?>
<svg id="Layer_2" data-name="Layer 2" xmlns="http://www.w3.org/2000/svg" viewBox="0 0 765.05 656.34">
  <defs>
    <style>
      .cls-1 {
        fill: #fff;
        stroke: #fff;
        stroke-miterlimit: 10;
        stroke-width: 1.17px;
      }
    </style>
  </defs>
  <g id="Layer_1-2" data-name="Layer 1">
    <path class="cls-1" d="M733.82,225.51l-.06-.06c-15.73-15.73-36.42-26.48-59.53-29.68V15.04c0-7.97-6.46-14.46-14.43-14.46-4.11,0-7.8,1.73-10.43,4.45l-30.56,27.21c-99.1,88.55-164.69,147.12-302.51,150.92v-23.95c0-7.96-6.46-14.46-14.43-14.46H155.24c-42.52,0-81.18,17.43-109.22,45.44C17.99,218.23,.58,256.89,.58,299.44s17.41,81.24,45.44,109.25c26.82,26.82,63.41,43.91,103.8,45.33v154.4c0,13.04,5.33,24.89,13.89,33.45s20.41,13.89,33.45,13.89h33.25c12.53,0,23.98-4.96,32.49-13.01l.96-.88c8.56-8.56,13.89-20.41,13.89-33.45v-154.32h24.12c7.97,0,14.43-6.46,14.43-14.43v-23.95c137.79,3.8,203.78,62.73,303.02,151.4,10.23,9.13,20.86,18.65,30.95,27.52,5.92,5.27,15.02,4.71,20.3-1.22,2.41-2.75,3.63-6.15,3.66-9.55v-180.74c23.13-3.2,43.85-13.95,59.58-29.68,18.94-18.94,30.64-45.1,30.64-73.98s-11.71-55.02-30.64-73.96Zm-88.47-16.27v342.57l-6.83-6.12c-104.37-93.23-173.68-155.14-322.19-158.88V212.08c148.56-3.71,217.45-65.28,321.65-158.4l7.37-6.58V209.24Zm68.03,143.8c-10.46,10.46-24.01,17.89-39.15,20.81V225.06c15.17,2.92,28.71,10.32,39.17,20.78,13.69,13.72,22.17,32.68,22.17,53.63s-8.48,39.85-22.2,53.57Z"/>
  </g>
</svg>