<?xml version="1.0" encoding="UTF-8"?>
<svg id="Layer_2" data-name="Layer 2" xmlns="http://www.w3.org/2000/svg" viewBox="0 0 932.65 660.5">
  <defs>
    <style>
      .cls-1 {
        fill: #fff;
        fill-rule: evenodd;
      }
    </style>
  </defs>
  <g id="Layer_1-2" data-name="Layer 1">
    <path class="cls-1" d="M72,0H860.68c19.79,0,37.81,8.11,50.82,21.12l.94,.94c-92.21,87.65-184.39,175.35-276.01,263.57-10.54,10.2-20.47,19.79-29.82,28.71l-.91,.91-3.6,3.4-1.22,1.16c-64.35,61.4-100.94,92.1-134.56,92.1-17.86,0-36.54-8.67-59.81-25.99l-2.07-1.56c-20.07-15.19-43.51-36.71-72.68-64.54l-6.41-6.09c-9.13-8.76-18.82-18.11-29.11-28.03l-53.57-51.48L31.75,33.42l-11.71-11.17,1.11-1.13C34.19,8.11,52.19,0,72,0h0ZM928.2,47.11c2.89,7.77,4.45,16.13,4.45,24.86V588.5c0,8.76-1.59,17.15-4.48,24.92l-7.48-7.14,.06-.06-210.93-200.81c-19.59-18.65-37.19-35.63-53.32-51.19-8.7-8.42-17.01-16.44-24.86-23.98,7.88-7.57,16.13-15.51,24.77-23.87l34.98-33.68L928.2,47.11Zm-15.65,591.19l-1.05,1.05c-13.07,13.04-31.07,21.15-50.82,21.15H72c-19.76,0-37.76-8.11-50.83-21.17l-1.05-1.05,222.55-212c19.3-18.37,37.11-35.55,53.46-51.33l25.74-24.8,2.07,1.96,.91,.85,2.69,2.52,.25,.25,2.92,2.72,.37,.34,2.49,2.32,2.83,2.64,1.59,1.47,1.22,1.11,2.18,2.01,.6,.54c52.36,47.96,87.17,71.94,124.33,71.94s74.41-25.68,129.91-77.07l1.87-1.73,.96-.91,2.52-2.35,.34-.31,2.92-2.72,.28-.28,2.66-2.49,2.98-2.81,25.77,24.83c16.33,15.76,34.16,32.94,53.43,51.31l222.58,212.03ZM4.48,613.42c-2.89-7.77-4.48-16.16-4.48-24.92V71.97c0-8.7,1.56-17.06,4.42-24.8l248.54,236.75,23.33,22.51c8.65,8.33,16.87,16.27,24.72,23.81-7.82,7.54-16.13,15.56-24.86,23.95-16.13,15.59-33.73,32.57-53.32,51.22L11.91,606.22l.06,.06-7.48,7.14Z"/>
  </g>
</svg>